<?xml version="1.0" encoding="utf-8"?>
<!-- Generator: Adobe Illustrator 15.0.0, SVG Export Plug-In . SVG Version: 6.00 Build 0)  -->
<!DOCTYPE svg PUBLIC "-//W3C//DTD SVG 1.1//EN" "http://www.w3.org/Graphics/SVG/1.1/DTD/svg11.dtd">
<svg version="1.1" id="Layer_1" xmlns="http://www.w3.org/2000/svg" xmlns:xlink="http://www.w3.org/1999/xlink" x="0px" y="0px"
	 width="248px" height="88px" viewBox="0 0 248 88" enable-background="new 0 0 248 88" xml:space="preserve">
<symbol  id="New_Symbol" viewBox="-118.96 -38.819 237.919 77.639">
	<g>
		<path fill="#404040" d="M-11.561,12.62c-0.424,0.584-0.892,1.031-1.402,1.343c-0.511,0.312-1.071,0.551-1.682,0.717
			c-0.61,0.166-1.22,0.249-1.83,0.249c-1.008,0-1.89-0.117-2.646-0.349c-0.756-0.232-1.383-0.547-1.88-0.945
			c-0.497-0.397-0.872-0.862-1.124-1.393s-0.378-1.088-0.378-1.671c0-0.876,0.156-1.582,0.467-2.119s0.707-0.969,1.184-1.294
			s1.005-0.58,1.582-0.766c0.577-0.186,1.131-0.371,1.662-0.557l4.019-1.313c1.207-0.385,2.271-0.822,3.193-1.313
			c0.922-0.49,1.694-1.071,2.318-1.741s1.098-1.442,1.423-2.317c0.325-0.876,0.487-1.89,0.487-3.044c0-1.247-0.255-2.4-0.766-3.462
			s-1.224-1.983-2.139-2.766c-0.915-0.783-2.006-1.396-3.273-1.841c-1.267-0.443-2.656-0.666-4.168-0.666
			c-1.552,0-2.878,0.176-3.979,0.527s-2.026,0.822-2.775,1.412s-1.35,1.264-1.801,2.02c-0.451,0.756-0.803,1.532-1.054,2.328h-1.512
			v3.422h5.014c0-1.473,0.156-2.514,0.468-3.123c0.312-0.611,0.746-1.118,1.303-1.522c0.557-0.405,1.22-0.71,1.99-0.915
			c0.769-0.206,1.618-0.309,2.547-0.309c0.902,0,1.714,0.105,2.437,0.318c0.723,0.212,1.34,0.521,1.851,0.925
			c0.51,0.405,0.902,0.896,1.174,1.473c0.271,0.577,0.408,1.229,0.408,1.96c0,0.809-0.169,1.495-0.507,2.059
			s-0.773,1.045-1.303,1.442c-0.531,0.398-1.111,0.724-1.741,0.976c-0.63,0.252-1.237,0.471-1.821,0.656l-4.357,1.233
			c-0.955,0.292-1.827,0.663-2.616,1.114c-0.79,0.451-1.466,1.002-2.029,1.651c-0.564,0.65-0.999,1.409-1.303,2.278
			c-0.306,0.869-0.458,1.873-0.458,3.015c0,1.153,0.225,2.234,0.676,3.243c0.451,1.008,1.114,1.89,1.99,2.646
			c0.875,0.757,1.946,1.35,3.213,1.781c1.266,0.431,2.716,0.646,4.347,0.646c1.074,0,2.066-0.126,2.975-0.378
			c0.908-0.252,1.731-0.606,2.467-1.064c0.736-0.458,1.386-1.008,1.95-1.651c0.563-0.644,1.038-1.35,1.423-2.119h1.492V9.994h-4.875
			C-10.924,11.161-11.136,12.036-11.561,12.62z"/>
		<path fill="#404040" d="M7.987-10.062c-0.783-0.729-1.648-1.326-2.596-1.791c-0.949-0.464-2.026-0.696-3.233-0.696
			c-1.008,0-1.933,0.159-2.775,0.478c-0.843,0.318-1.569,0.753-2.179,1.303c-0.61,0.551-1.084,1.191-1.423,1.92
			c-0.338,0.73-0.507,1.506-0.507,2.328c0,0.876,0.129,1.652,0.388,2.328c0.259,0.677,0.604,1.264,1.035,1.762
			c0.431,0.496,0.935,0.914,1.512,1.253c0.577,0.338,1.18,0.609,1.811,0.815c0.63,0.205,1.273,0.352,1.93,0.438
			c0.657,0.086,1.284,0.13,1.88,0.13c0.955,0,1.757-0.03,2.408-0.09c0.649-0.06,1.24-0.143,1.77-0.249l0.021,1.691
			c0,0.729-0.106,1.363-0.318,1.9C7.496,3.995,7.198,4.439,6.813,4.791S5.968,5.404,5.43,5.577c-0.537,0.172-1.137,0.259-1.8,0.259
			c-0.624,0-1.221-0.044-1.791-0.13S0.735,5.507,0.237,5.368c-0.498-0.14-0.955-0.299-1.373-0.478
			C-1.553,4.711-1.908,4.522-2.2,4.323L-3.414,6.89c0.49,0.318,1.028,0.613,1.611,0.886c0.583,0.271,1.197,0.504,1.841,0.696
			c0.643,0.192,1.3,0.345,1.97,0.458c0.669,0.112,1.33,0.169,1.979,0.169c1.194,0,2.268-0.143,3.223-0.428
			c0.956-0.285,1.764-0.727,2.428-1.323c0.662-0.597,1.174-1.356,1.531-2.278c0.358-0.922,0.537-2.026,0.537-3.312L11.688-8.55
			h2.288v-3.422H7.987V-10.062z M2.973-9.444c0.491,0,0.981,0.059,1.472,0.179C4.936-9.146,5.4-8.983,5.838-8.778
			C6.276-8.573,6.68-8.334,7.052-8.062C7.423-7.79,7.735-7.509,7.987-7.216l0.02,4.655H3.709c-0.716,0-1.37-0.079-1.96-0.239
			C1.159-2.958,0.648-3.19,0.217-3.495C-0.214-3.801-0.549-4.179-0.787-4.63c-0.239-0.451-0.358-0.969-0.358-1.552
			c0-0.544,0.1-1.019,0.298-1.423c0.199-0.404,0.481-0.742,0.846-1.015s0.799-0.478,1.303-0.616
			C1.806-9.375,2.363-9.444,2.973-9.444z"/>
		<path fill="#404040" d="M30.09-8.55h2.904v9.411c0,1.578-0.401,2.775-1.203,3.592c-0.803,0.815-1.953,1.224-3.453,1.224
			c-0.861,0-1.73-0.206-2.605-0.617c-0.876-0.411-1.705-0.922-2.487-1.532V-8.55h2.905v-3.422H16.52v3.422h2.865V5.219H16.52v3.422
			h6.566V6.214h0.039c0.438,0.384,0.906,0.749,1.403,1.094s1.018,0.644,1.562,0.896s1.111,0.451,1.701,0.597
			c0.59,0.146,1.211,0.219,1.861,0.219c1.1,0,2.096-0.152,2.984-0.457c0.889-0.306,1.645-0.77,2.268-1.393
			c0.623-0.624,1.104-1.423,1.442-2.397c0.339-0.976,0.507-2.126,0.507-3.452V-8.55h2.865v-3.422H30.09V-8.55z"/>
		<path fill="#404040" d="M56.284,3.149c-0.557,0.995-1.264,1.725-2.119,2.188c-0.855,0.465-1.848,0.696-2.975,0.696
			c-0.862,0-1.672-0.179-2.428-0.537s-1.416-0.869-1.979-1.532s-1.009-1.469-1.333-2.417c-0.325-0.948-0.487-2.007-0.487-3.174
			c0-1.153,0.162-2.195,0.487-3.123c0.324-0.929,0.772-1.721,1.344-2.378c0.569-0.657,1.229-1.161,1.979-1.513
			c0.75-0.352,1.556-0.527,2.418-0.527c1.273,0,2.381,0.309,3.322,0.926s1.691,1.522,2.248,2.716l3.064-1.512
			c-0.397-0.849-0.889-1.612-1.473-2.288c-0.583-0.677-1.242-1.254-1.979-1.731s-1.546-0.845-2.428-1.104
			c-0.883-0.258-1.814-0.388-2.796-0.388c-1.433,0-2.755,0.269-3.97,0.806c-1.213,0.537-2.262,1.29-3.143,2.259
			c-0.883,0.968-1.569,2.122-2.06,3.462c-0.491,1.34-0.736,2.805-0.736,4.396s0.259,3.058,0.776,4.397
			c0.517,1.34,1.227,2.49,2.129,3.452c0.901,0.962,1.956,1.714,3.163,2.258s2.5,0.816,3.88,0.816c1.3,0,2.529-0.226,3.691-0.677
			c1.16-0.451,2.178-1.134,3.054-2.05h2.089V3.149H56.284z"/>
		<path fill="#404040" d="M62.215,8.641h6.725V-8.55h3.104v-3.422h-9.789v3.422H65.2V5.219h-2.984V8.641z M64.502,15.943
			c0,0.345,0.07,0.673,0.209,0.984c0.14,0.312,0.325,0.584,0.558,0.815c0.231,0.232,0.507,0.418,0.825,0.558
			s0.656,0.209,1.016,0.209c0.344,0,0.672-0.069,0.984-0.209c0.312-0.14,0.584-0.325,0.816-0.558
			c0.231-0.231,0.417-0.504,0.557-0.815c0.139-0.312,0.209-0.64,0.209-0.984c0-0.358-0.07-0.696-0.209-1.015
			c-0.14-0.318-0.325-0.601-0.557-0.846c-0.232-0.246-0.505-0.438-0.816-0.577c-0.312-0.14-0.641-0.209-0.984-0.209
			c-0.359,0-0.697,0.069-1.016,0.209c-0.318,0.139-0.594,0.331-0.825,0.577c-0.232,0.245-0.418,0.527-0.558,0.846
			C64.573,15.247,64.502,15.585,64.502,15.943z"/>
		<path fill="#404040" d="M73.211-1.665c0.014,1.631,0.275,3.116,0.786,4.456s1.224,2.49,2.139,3.452s2.003,1.701,3.263,2.219
			c1.261,0.518,2.646,0.776,4.158,0.776c1.525,0,2.922-0.259,4.189-0.776c1.266-0.518,2.351-1.25,3.252-2.198
			c0.902-0.949,1.605-2.093,2.109-3.433s0.756-2.825,0.756-4.457c0-1.604-0.252-3.08-0.756-4.426
			c-0.504-1.348-1.207-2.504-2.109-3.473c-0.901-0.969-1.986-1.721-3.252-2.258c-1.268-0.537-2.664-0.807-4.189-0.807
			c-1.551,0-2.957,0.266-4.217,0.797c-1.261,0.529-2.342,1.275-3.244,2.238c-0.902,0.961-1.604,2.111-2.108,3.451
			C73.483-4.763,73.225-3.284,73.211-1.665z M77.131-1.665c0-1.182,0.169-2.248,0.508-3.203c0.338-0.955,0.802-1.768,1.393-2.438
			c0.59-0.67,1.273-1.188,2.049-1.553c0.775-0.364,1.602-0.547,2.477-0.547c0.916,0,1.768,0.18,2.558,0.537
			c0.788,0.358,1.476,0.873,2.06,1.543c0.583,0.669,1.041,1.481,1.373,2.437c0.33,0.955,0.496,2.03,0.496,3.224
			c0,1.246-0.166,2.354-0.496,3.322c-0.332,0.968-0.787,1.777-1.363,2.428c-0.577,0.649-1.264,1.141-2.06,1.472
			c-0.796,0.332-1.651,0.498-2.567,0.498c-0.875,0-1.701-0.166-2.477-0.498c-0.775-0.331-1.459-0.822-2.049-1.472
			c-0.591-0.65-1.055-1.46-1.393-2.428C77.3,0.688,77.131-0.419,77.131-1.665z M83.28,17.415h4.774v-0.338l-5.948-5.611h-3.064
			L83.28,17.415z"/>
		<path fill="#404040" d="M109.331-8.55h2.904v9.411c0,1.578-0.401,2.775-1.203,3.592c-0.803,0.815-1.953,1.224-3.453,1.224
			c-0.861,0-1.73-0.206-2.605-0.617c-0.876-0.411-1.705-0.922-2.487-1.532V-8.55h2.905v-3.422H95.76v3.422h2.865V5.219H95.76v3.422
			h6.566V6.214h0.039c0.438,0.384,0.906,0.749,1.403,1.094s1.018,0.644,1.562,0.896s1.111,0.451,1.701,0.597
			c0.59,0.146,1.211,0.219,1.861,0.219c1.1,0,2.096-0.152,2.984-0.457c0.889-0.306,1.645-0.77,2.268-1.393
			c0.623-0.624,1.104-1.423,1.442-2.397c0.339-0.976,0.507-2.126,0.507-3.452V-8.55h2.865v-3.422h-9.629V-8.55z"/>
	</g>
	<g>
		<path fill="#404040" d="M-107.59,27.449c15.16,15.16,39.739,15.16,54.899,0c15.16-15.159,15.16-39.739,0-54.898
			c-15.16-15.16-39.739-15.16-54.899,0C-122.75-12.29-122.75,12.29-107.59,27.449z"/>
		<g>
			<path fill="#F7F6F0" d="M-95.8-8.546h2.08v15.69l-4.344-2.362v2.957l5.971,3.339h1.132V-8.546h2.108v-2.434H-95.8V-8.546z"/>
			<path fill="#F7F6F0" d="M-78.565,10.905h2.427l-8.368-22.289h-2.428L-78.565,10.905z"/>
			<path fill="#F7F6F0" d="M-75.375-8.9l7.541,9.112c0.255,0.302,0.521,0.627,0.8,0.977c0.277,0.349,0.537,0.717,0.777,1.104
				c0.241,0.387,0.439,0.79,0.595,1.21c0.155,0.419,0.233,0.855,0.233,1.309c0,0.472-0.095,0.915-0.283,1.33
				s-0.448,0.778-0.778,1.089c-0.33,0.312-0.724,0.557-1.181,0.736c-0.458,0.179-0.96,0.269-1.507,0.269
				c-0.491,0-0.955-0.078-1.394-0.233c-0.439-0.155-0.823-0.385-1.153-0.687s-0.597-0.677-0.8-1.125
				c-0.203-0.447-0.313-0.964-0.332-1.549h-2.547c0.009,0.896,0.184,1.724,0.523,2.483c0.34,0.759,0.795,1.414,1.365,1.966
				s1.233,0.981,1.988,1.288c0.754,0.307,1.547,0.46,2.377,0.46c0.962,0,1.834-0.153,2.617-0.46s1.452-0.729,2.009-1.267
				c0.557-0.537,0.988-1.174,1.295-1.91c0.307-0.735,0.46-1.532,0.46-2.391c0-0.34-0.04-0.7-0.12-1.082
				c-0.081-0.383-0.218-0.793-0.411-1.231s-0.447-0.908-0.764-1.408s-0.715-1.037-1.195-1.612l-6.692-7.966h9.154v-2.49h-12.578
				V-8.9z"/>
		</g>
	</g>
</symbol>
<use xlink:href="#New_Symbol"  width="237.919" height="77.639" x="-118.96" y="-38.819" transform="matrix(1 0 0 -1 124.228 43.8506)" overflow="visible"/>
</svg>
